# xmcd CD database file generated by OrangeCD 4.2
#
# Track frame offsets:
#	150
#	16575
#	37950
#	54603
#	70150
#	84858
#	101150
#	125983
#	139580
#	164263
#	178920
#	196235
#	209155
#	226638
#	247505
#	270463
#	285978
#	297583
#	315915
#
# Disc length: 4466 seconds
#
# Revision: 1
# Processed by: cddbd v1.4PL0 Copyright (c) Steve Scherf et al.
# Submitted via: OrangeCD 4.2
#
DISCID=04117013
DTITLE=The Paul deLay Band - Take It From The Turnaround
DYEAR=1900
DGENRE=Blues
TTITLE0=Merry Way
TTITLE1=Ain't That Right 
TTITLE2=The Other One
TTITLE3=Great Round World
TTITLE4=Chalk and Roll 
TTITLE5=Silly Smile
TTITLE6=Why Can't You Love Me
TTITLE7=Every Woman I Get
TTITLE8=Oat Bran
TTITLE9=Worn Out Shoes
TTITLE10=Second-Hand Smoke
TTITLE11=I Can't Quit You No
TTITLE12=No Use Worryin' 
TTITLE13=What's the Big Idea? 
TTITLE14=I Missed You Bad
TTITLE15=Don't Feel Nothin' 
TTITLE16=Lou's Blues 
TTITLE17=Just This One
TTITLE18=The Prisoner's Song
EXTD=
EXTT0=
EXTT1=
EXTT2=
EXTT3=
EXTT4=
EXTT5=
EXTT6=
EXTT7=
EXTT8=
EXTT9=
EXTT10=
EXTT11=
EXTT12=
EXTT13=
EXTT14=
EXTT15=
EXTT16=
EXTT17=
EXTT18=
PLAYORDER=
